<svg width="30" height="29" viewBox="0 0 30 29" fill="none" xmlns="http://www.w3.org/2000/svg">
<path d="M21 14.5C24.795 14.5 27.875 11.42 27.875 7.625C27.875 3.83 24.795 0.75 21 0.75C17.205 0.75 14.125 3.83 14.125 7.625C14.125 11.42 17.205 14.5 21 14.5ZM28.4938 22.2C27.9575 21.65 27.2838 21.375 26.5 21.375H16.875L14.015 20.3713L14.4688 19.0788L16.875 20H20.725C21.2063 20 21.5913 19.8075 21.9075 19.4913C22.2238 19.175 22.375 18.79 22.375 18.3638C22.375 17.6213 22.0175 17.1125 21.3025 16.8237L11.3063 13.125H8.62503V25.5L18.25 28.25L29.2913 24.125C29.305 23.3962 29.03 22.75 28.4938 22.2ZM5.87503 13.125H0.353027V28.25H5.87503V13.125Z" fill="black"/>
</svg>
