<svg width="226" height="119" viewBox="0 0 226 119" fill="none" xmlns="http://www.w3.org/2000/svg">
<g clip-path="url(#clip0_219_624)">
<path d="M91.123 80.9997C94.4757 76.034 97.8232 71.0648 101.182 66.1036C104.42 61.3218 107.67 56.5482 111.011 51.629C106.817 51.629 102.763 51.629 98.7091 51.629C98.6336 51.5194 98.558 51.4098 98.4824 51.3001C98.7684 51.1057 99.0939 50.9513 99.3345 50.7113C110.684 39.39 122.026 28.061 133.371 16.7351C133.572 16.5351 133.798 16.3611 134.012 16.175C134.211 16.302 134.409 16.4291 134.607 16.5563C131.701 20.8691 128.804 25.1874 125.889 29.4932C122.489 34.5144 119.073 39.5242 115.666 44.5409C115.53 44.7419 115.424 44.9637 115.241 45.2879C119.453 45.2879 123.554 45.2879 127.831 45.2879C127.641 45.5466 127.566 45.6813 127.461 45.7858C115.692 57.5473 103.921 69.3066 92.1486 81.0641C92.0239 81.1886 91.8727 81.2865 91.734 81.3967C91.5303 81.2644 91.3267 81.1322 91.123 80.9997Z" fill="#B89432"/>
<path d="M91.2242 81.956C90.5419 82.6444 89.8596 83.3328 89.1774 84.0212L89.1064 83.9471C89.6804 83.0826 90.2544 82.2182 90.8285 81.3539C90.8562 81.3817 90.8828 81.4103 90.9084 81.4397C90.9716 81.5724 91.0348 81.7052 91.0979 81.8379C91.1341 81.8836 91.1762 81.923 91.2242 81.956Z" fill="#B89432"/>
<path d="M134.661 15.5245C135.189 14.982 135.718 14.4396 136.246 13.897C136.291 13.9374 136.337 13.9762 136.384 14.0134C135.935 14.6416 135.486 15.2697 135.036 15.898C134.911 15.7736 134.786 15.649 134.661 15.5245Z" fill="#B89432"/>
<path d="M91.1223 80.9997C91.326 81.1322 91.5296 81.2643 91.7332 81.3967C91.5627 81.5829 91.3922 81.7692 91.2228 81.9557C91.1758 81.923 91.1337 81.8835 91.0976 81.8378C91.0344 81.7052 90.9712 81.5723 90.908 81.4396C90.8824 81.4102 90.8558 81.3816 90.8281 81.3538C90.926 81.2357 91.0242 81.1178 91.1223 80.9997Z" fill="#B89432"/>
<path d="M134.606 16.5563C134.408 16.4291 134.21 16.302 134.012 16.175C134.154 16.0323 134.297 15.8895 134.439 15.7469C134.585 15.8903 134.731 16.0336 134.877 16.177C134.787 16.3034 134.696 16.4299 134.606 16.5563Z" fill="#B89432"/>
<path d="M134.877 16.1771C134.731 16.0337 134.585 15.8903 134.439 15.7469C134.513 15.6728 134.587 15.5987 134.661 15.5245C134.786 15.649 134.911 15.7736 135.036 15.8981C134.983 15.991 134.93 16.084 134.877 16.1771Z" fill="#B89432"/>
<path d="M136.246 13.8971C136.353 13.782 136.46 13.6671 136.567 13.552L136.602 13.5884C136.529 13.7301 136.457 13.8718 136.384 14.0135C136.337 13.9763 136.29 13.9375 136.246 13.8971Z" fill="#B89432"/>
<path d="M136.567 13.5519C136.606 13.5025 136.644 13.453 136.682 13.4036C136.655 13.4647 136.628 13.5257 136.601 13.5875L136.567 13.5519Z" fill="#B89432"/>
<path d="M89.1776 84.0211C89.1363 84.0705 89.0951 84.1199 89.0537 84.1693C89.0718 84.0958 89.0899 84.0221 89.1072 83.9477L89.1776 84.0211Z" fill="#B89432"/>
<path d="M90.9082 81.4397C90.9714 81.5724 91.0346 81.7052 91.0978 81.8379C91.0345 81.7052 90.9713 81.5723 90.9082 81.4397Z" fill="#B89432"/>
<path d="M61.8923 67.5884H51.5859V84.0924H61.8923V67.5884Z" fill="#B89432"/>
<path d="M44.0351 45.1675L61.2178 62.396C61.5933 62.7725 61.5933 63.3831 61.2178 63.7597L55.2903 69.7031C54.9147 70.0796 54.3057 70.0796 53.9301 69.7031L36.7476 52.4746C36.3719 52.098 36.3719 51.4874 36.7476 51.1108L42.675 45.1675C43.0505 44.791 43.6596 44.791 44.0351 45.1675Z" fill="#B89432"/>
<path d="M61.8922 64.2367V74.8849C61.8922 76.502 60.5848 77.8128 58.9721 77.8128H54.506C52.8933 77.8128 51.5859 76.502 51.5859 74.8849V64.8702C51.5859 62.9032 53.1763 61.3087 55.1379 61.3087H58.9721C60.5848 61.3088 61.8922 62.6197 61.8922 64.2367Z" fill="#B89432"/>
<path d="M15.0958 54.5451C15.0845 53.0565 15.0639 51.5678 15.0635 50.0792C15.0611 39.7531 15.0747 29.4269 15.041 19.1008C15.0384 18.2766 15.2941 17.981 16.0553 17.7602C20.6433 16.4292 25.2145 15.0399 29.7921 13.6727C30.1337 13.5707 30.4813 13.4888 30.8715 13.3855C30.8912 13.6827 30.9193 13.9095 30.9193 14.1362C30.9218 27.4411 30.9221 40.7459 30.9209 54.0508C30.9209 54.2155 30.9 54.3803 30.8888 54.5451C29.9196 54.5451 28.9504 54.5451 27.9813 54.5451C28.0452 53.9151 27.7795 53.7263 27.1416 53.7348C24.3758 53.771 21.609 53.771 18.8432 53.7348C18.2054 53.7264 17.9396 53.9151 18.0036 54.5451C17.0341 54.5451 16.065 54.5451 15.0958 54.5451ZM22.9426 33.8727C24.361 33.8727 25.7805 33.8399 27.1972 33.8877C27.8266 33.909 27.9953 33.6975 27.9596 33.0999C27.9123 32.309 27.91 31.5107 27.9604 30.7201C28.0008 30.0839 27.8132 29.8676 27.1482 29.8818C25.137 29.9252 23.1243 29.8903 21.1122 29.9005C20.1284 29.9055 19.1447 29.9431 18.1608 29.9659C18.1194 31.0107 18.1021 32.0571 18.0273 33.0995C17.9844 33.6967 18.1571 33.9096 18.787 33.8875C20.1707 33.8393 21.5573 33.8727 22.9426 33.8727ZM23.0607 35.8611C21.6094 35.8611 20.1578 35.8795 18.7071 35.8511C18.2008 35.8413 18 35.9789 18.0262 36.515C18.0665 37.3399 18.0867 38.1721 18.0216 38.9937C17.9636 39.7242 18.2521 39.8644 18.9166 39.8504C20.8948 39.8087 22.8744 39.8488 24.8533 39.8298C25.8625 39.8201 27.2731 40.1325 27.7694 39.6055C28.2877 39.0552 27.8869 37.6684 27.9613 36.6527C28.0116 35.9647 27.7331 35.83 27.1173 35.8483C25.7662 35.8887 24.413 35.8609 23.0607 35.8611ZM23.0437 41.8242C21.6256 41.8242 20.2062 41.8566 18.7897 41.8093C18.1639 41.7884 17.9885 41.9934 18.0251 42.5946C18.0734 43.3853 18.0747 44.1836 18.025 44.9741C17.9853 45.6074 18.1671 45.8286 18.835 45.814C20.8459 45.7701 22.8584 45.8052 24.8702 45.7952C25.8541 45.7903 26.8379 45.7535 27.8218 45.7312C27.8637 44.6867 27.882 43.6406 27.9567 42.5985C27.9993 42.0039 27.8311 41.7867 27.1988 41.809C25.8153 41.8579 24.4289 41.8242 23.0437 41.8242ZM22.9012 51.7609C23.5277 51.7609 24.1545 51.7696 24.781 51.7589C25.797 51.7417 26.8127 51.7116 27.8286 51.687C27.8681 50.6086 27.8894 49.5289 27.9549 48.4521C27.9866 47.932 27.81 47.7726 27.2882 47.7766C24.4191 47.7991 21.5497 47.8005 18.6807 47.7759C18.1377 47.7713 18.0099 47.971 18.0285 48.4676C18.0607 49.3262 18.0687 50.1884 18.0263 51.0461C17.9985 51.6088 18.1802 51.7881 18.7461 51.7729C20.1301 51.7356 21.516 51.7608 22.9012 51.7609Z" fill="#B89432"/>
<path d="M27.972 54.508C28.9393 54.508 29.9068 54.508 30.8743 54.508C30.8853 60.4215 30.8988 66.3349 30.9064 72.2484C30.9113 76.0478 30.8938 79.8476 30.9211 83.6469C30.9256 84.2792 30.7726 84.4865 30.1094 84.4826C25.3646 84.454 20.6194 84.4657 15.8744 84.47C15.4312 84.4705 15.0614 84.5283 15.0635 83.8451C15.0938 74.0661 15.0987 64.287 15.1098 54.5079C16.0772 54.5079 17.0446 54.5079 18.012 54.508C18.0231 55.3636 17.9936 56.223 18.0725 57.0724C18.0929 57.2918 18.4502 57.6531 18.6566 57.6559C21.5465 57.6944 24.4373 57.6944 27.3274 57.6559C27.5338 57.6531 27.8911 57.2919 27.9115 57.0724C27.9902 56.2231 27.961 55.3637 27.972 54.508ZM23.0335 63.634C24.4498 63.634 25.8665 63.6129 27.2819 63.6451C27.8053 63.657 27.9735 63.4884 27.9488 62.9701C27.9112 62.1793 27.8929 61.3819 27.9532 60.5939C28.0079 59.8794 27.8254 59.621 27.0504 59.645C25.0762 59.7061 23.0987 59.651 21.1228 59.6712C20.1161 59.6816 18.7801 59.3872 18.2037 59.9089C17.7037 60.3614 18.0998 61.7726 18.0326 62.7553C17.9867 63.4265 18.1615 63.6826 18.8845 63.6514C20.2652 63.5921 21.6503 63.6342 23.0335 63.634ZM22.892 69.5864C23.5178 69.5864 24.1439 69.6024 24.769 69.5827C25.808 69.5502 27.2695 69.8859 27.7693 69.3423C28.3008 68.7641 27.9209 67.3436 27.9388 66.2907C27.9394 66.2578 27.9529 66.2115 27.9364 66.1937C27.7569 65.9994 27.5746 65.6455 27.3894 65.6432C24.4588 65.6082 21.5275 65.6082 18.597 65.6431C18.411 65.6453 18.0829 65.99 18.0705 66.1909C18.0135 67.112 18.0765 68.04 18.0338 68.9625C18.0073 69.534 18.2764 69.6006 18.7426 69.5936C20.1254 69.5726 21.5089 69.5861 22.892 69.5864ZM23.019 71.5705C22.3932 71.5705 21.7672 71.5565 21.1419 71.5738C20.1336 71.6016 19.1258 71.6499 18.1177 71.6894C18.0937 72.7725 18.0871 73.8566 18.0377 74.9385C18.0154 75.4285 18.2112 75.5485 18.6676 75.546C21.5325 75.5301 24.3975 75.5285 27.2624 75.5473C27.7564 75.5506 27.9747 75.4385 27.9495 74.8935C27.9084 74.0039 27.909 73.1097 27.9494 72.2201C27.9739 71.6806 27.7678 71.5512 27.2668 71.5611C25.8513 71.589 24.435 71.5709 23.019 71.5705ZM22.9942 81.4901C23.5869 81.4901 24.1797 81.4981 24.7724 81.4884C25.7872 81.4716 26.802 81.4438 27.8169 81.4207C27.8574 80.3444 27.881 79.267 27.9458 78.1922C27.9766 77.6817 27.8171 77.5073 27.2871 77.5117C24.4224 77.5355 21.5573 77.5358 18.6927 77.5115C18.157 77.507 18.0164 77.6929 18.0364 78.1964C18.0703 79.0535 18.0759 79.9144 18.0351 80.7709C18.0086 81.3242 18.173 81.5182 18.7468 81.5025C20.1615 81.4641 21.5782 81.49 22.9942 81.4901Z" fill="#B89432"/>
<mask id="mask0_219_624" style="mask-type:luminance" maskUnits="userSpaceOnUse" x="29" y="13" width="54" height="42">
<path d="M82.9522 13.3855H29.8096V54.6652H82.9522V13.3855Z" fill="white"/>
</mask>
<g mask="url(#mask0_219_624)">
<path d="M30.0255 54.6652C29.9679 51.8816 29.6299 49.1818 29.9364 46.5577C30.25 43.873 29.3785 41.1985 30.207 38.5779C30.683 38.7084 31.3194 38.2653 31.4308 37.5913C31.5012 37.1659 31.7091 37.0509 32.1029 36.9702C32.4306 36.9031 32.7562 36.6866 33.0183 36.4609C34.0514 35.5712 35.0594 34.6523 36.0762 33.7434C37.5733 32.4054 39.0726 31.07 40.5653 29.7272C41.1533 29.1983 41.7043 28.626 42.3115 28.1212C42.9109 27.623 43.5871 27.2169 44.1802 26.712C44.8123 26.1739 45.3833 25.5639 45.9867 24.9914C46.7787 24.2401 47.5872 23.5059 48.3693 22.7445C49.6072 21.5396 50.8245 20.3136 52.059 19.1052C53.0539 18.1315 54.0661 17.1756 55.06 16.2009C55.3319 15.9343 55.513 15.4859 55.8275 15.3689C56.578 15.0897 57.38 14.9436 58.1673 14.7714C58.9669 14.5967 59.7713 14.441 60.578 14.3026C61.6598 14.117 62.746 13.9573 63.8298 13.7837C64.0651 13.746 64.3541 13.7692 64.523 13.6394C65.1512 13.1567 65.4505 13.7448 65.7699 14.0342C66.3471 14.5571 66.8171 15.1981 67.3873 15.73C67.8697 16.1801 68.3225 15.7822 68.7003 15.4993C69.4377 14.9472 70.1263 14.3297 70.8565 13.7674C71.075 13.5991 71.3603 13.4346 71.6227 13.4213C72.8642 13.3583 74.1344 13.271 75.1514 14.2028C75.9858 14.9674 76.6901 15.8275 77.2251 16.8504C77.9634 18.2619 78.8229 19.6094 79.6036 20.9996C79.9858 21.6801 80.3149 22.3911 80.6549 23.0947C81.2247 24.2739 81.7781 25.4612 82.3513 26.6388C82.518 26.9811 82.7561 27.29 82.9072 27.6379C82.9833 27.813 82.938 28.041 82.9475 28.2452C82.7607 28.2106 82.568 28.1948 82.3881 28.1383C81.6707 27.9131 80.9501 27.6947 80.2455 27.4335C79.9284 27.3159 79.6192 27.1379 79.3535 26.9276C78.5604 26.2999 77.8519 25.5378 76.991 25.0328C76.3883 24.6794 75.5979 24.5897 74.8772 24.5085C73.3255 24.3334 71.8006 23.9081 70.2118 24.0332C69.813 24.0647 69.4002 23.8321 68.9864 23.7736C68.214 23.6644 67.4377 23.551 66.6599 23.5212C66.0539 23.4979 65.6325 23.3195 65.3314 22.7585C65.0176 22.1739 64.6134 21.6373 64.2356 21.0889C64.1492 20.9635 64.0168 20.7964 63.8921 20.784C63.332 20.7281 62.7658 20.7368 62.2041 20.692C61.6047 20.6443 61.15 20.7983 60.7332 21.294C59.9006 22.2841 58.9759 23.1959 58.1073 24.1565C57.1227 25.2451 56.1699 26.363 55.1799 27.4467C54.5446 28.1422 53.843 28.7774 53.2145 29.4785C52.3936 30.3944 51.6423 31.3735 50.8108 32.2791C50.1092 33.043 49.3004 33.7082 48.6035 34.4759C47.668 35.5063 46.8078 36.6052 45.8894 37.6517C45.345 38.2722 44.7474 38.8456 44.1793 39.4455C43.1733 40.5078 42.1684 41.5711 41.169 42.6396C40.2983 43.5706 39.432 44.5058 38.5706 45.4455C37.6335 46.4679 36.6226 47.4368 35.8023 48.5468C35.3122 49.21 34.641 49.6408 34.1354 50.2625C33.6281 50.8861 33.0267 51.4319 32.492 52.0343C31.8503 52.7574 31.2415 53.5097 30.604 54.2367C30.4713 54.3872 30.2761 54.4828 30.0255 54.6652ZM54.6222 19.5348C54.6054 19.4978 54.5582 19.3141 54.5169 19.3154C54.3442 19.3211 54.1298 19.331 54.0101 19.4331C53.6883 19.7075 53.4179 20.0416 53.1079 20.3314C51.3337 21.9907 49.5077 23.5974 47.7906 25.314C46.4142 26.6899 44.8841 27.8893 43.7201 29.5221C42.7814 30.8389 41.3548 31.8059 40.1458 32.9292C38.2253 34.7133 36.3021 36.4946 34.3933 38.2913C34.2564 38.4203 34.228 38.6653 34.1492 38.8565C34.3626 38.8169 34.6347 38.8483 34.7806 38.7271C36.716 37.1182 38.6419 35.4977 40.5532 33.8603C42.4103 32.2695 44.2365 30.6424 46.0973 29.056C47.8281 27.5804 49.5614 26.1051 51.3442 24.6939C52.1742 24.0369 52.7639 23.034 53.9108 22.8037C53.9475 22.7963 53.9816 22.7074 53.9928 22.6517C54.1999 21.6384 54.403 20.6245 54.6222 19.5348ZM57.0034 19.2914C57.0023 19.2885 57.0376 19.4773 57.0886 19.4817C57.2362 19.4943 57.4021 19.459 57.5394 19.3958C58.2544 19.0661 58.9819 18.7562 59.6644 18.3675C59.9758 18.19 60.2365 17.8751 60.4346 17.5671C60.5264 17.4245 60.5769 17.0392 60.1426 17.0974C59.3678 17.2013 58.5842 17.2673 57.8246 17.4395C57.5518 17.5014 57.23 17.7796 57.1237 18.0386C56.9858 18.3755 57.0405 18.7918 57.0034 19.2914Z" fill="#B89432"/>
</g>
<path d="M17.305 101.08H20.4452V102.611H15.5156V90.4738H20.4452V92.0041H17.305V95.6275H19.8663V97.1579H17.305V101.08Z" fill="#B89432"/>
<path d="M28.8479 90.4034V102.54H27.0585V102.452L23.9183 94.8888V102.54H22.1289V90.4035H23.9183L27.0585 97.967V90.4035L28.8479 90.4034Z" fill="#B89432"/>
<path d="M36.5495 99.9194C36.5495 101.608 35.3741 102.786 33.6901 102.786C31.9884 102.786 30.6025 101.643 30.6025 99.8842V93.1297C30.6025 91.3532 31.9533 90.2274 33.6726 90.2274C35.4093 90.2274 36.5496 91.4763 36.5496 93.1825C36.5496 93.6222 36.5496 94.0796 36.5496 94.5193H34.7603C34.7603 93.552 35.0234 92.092 33.6024 92.092C32.9885 92.092 32.392 92.4613 32.392 93.1297V99.7434C32.392 100.429 32.9183 100.939 33.6024 100.939C34.2164 100.939 34.7603 100.57 34.7603 99.9193V97.8613H33.4972V96.331H36.5497V99.9194H36.5495Z" fill="#B89432"/>
<path d="M38.5312 102.611V90.4738H40.3206V102.611H38.5312Z" fill="#B89432"/>
<path d="M49.3381 90.4034V102.54H47.5487V102.452L44.4085 94.8888V102.54H42.6191V90.4035H44.4085L47.5487 97.967V90.4035L49.3381 90.4034Z" fill="#B89432"/>
<path d="M53.3382 101.08H56.4784V102.611H51.5488V90.4738H56.4784V92.0041H53.3382V95.6275H55.8995V97.1579H53.3382V101.08Z" fill="#B89432"/>
<path d="M59.9515 101.08H63.0917V102.611H58.1621V90.4738H63.0917V92.0041H59.9515V95.6275H62.5128V97.1579H59.9515V101.08Z" fill="#B89432"/>
<path d="M69.3015 97.3161L71.0207 102.611L69.1787 102.628L67.5823 97.7558H66.5648V102.611H64.7754V90.4738C64.8456 90.4738 64.8982 90.4738 64.9684 90.4738L65.3368 90.4562C65.3894 90.4562 65.4596 90.4562 65.5122 90.4562C66.0034 90.4387 66.5121 90.421 67.0033 90.421C69.3716 90.421 70.4944 91.1422 70.4944 93.6223C70.4944 94.8359 70.4769 96.595 69.3015 97.3161ZM68.7226 94.3082C68.7226 92.2678 68.7753 91.8808 66.5649 91.8808V96.3311H67.3543C68.5998 96.3311 68.7226 95.3284 68.7226 94.3082Z" fill="#B89432"/>
<path d="M72.3721 102.611V90.4738H74.1614V102.611H72.3721Z" fill="#B89432"/>
<path d="M83.1779 90.4034V102.54H81.3886V102.452L78.2484 94.8888V102.54H76.459V90.4035H78.2484L81.3886 97.967V90.4035L83.1779 90.4034Z" fill="#B89432"/>
<path d="M90.8796 99.9194C90.8796 101.608 89.7042 102.786 88.0202 102.786C86.3185 102.786 84.9326 101.643 84.9326 99.8842V93.1297C84.9326 91.3532 86.2834 90.2274 88.0026 90.2274C89.7394 90.2274 90.8797 91.4763 90.8797 93.1825C90.8797 93.6222 90.8797 94.0796 90.8797 94.5193H89.0904C89.0904 93.552 89.3534 92.092 87.9325 92.092C87.3185 92.092 86.7221 92.4613 86.7221 93.1297V99.7434C86.7221 100.429 87.2484 100.939 87.9325 100.939C88.5465 100.939 89.0904 100.57 89.0904 99.9193V97.8613H87.8273V96.331H90.8798V99.9194H90.8796Z" fill="#B89432"/>
<path d="M101.966 96.9291C101.966 98.0724 101.861 99.0222 101.65 99.8138C102.124 100.711 102.44 101.731 102.44 102.892C101.808 102.892 101.475 102.892 100.861 102.892C100.808 102.487 100.738 102.101 100.633 101.749C100.054 102.329 99.2467 102.611 98.2117 102.611C94.5803 102.611 94.5102 98.2132 96.4223 96.0145C95.7205 95.2231 95.2644 94.4315 95.3171 93.4113C95.4047 91.5995 96.8257 90.4562 98.3345 90.4562C100.018 90.4387 101.65 91.406 101.65 93.9565L99.9484 94.5193C100.106 92.8484 99.2466 92.18 98.4221 92.18C97.7204 92.18 97.1414 92.7604 97.1239 93.5344C97.0888 94.7481 98.808 96.0497 100.317 97.8263C100.334 97.5448 100.334 97.2458 100.334 96.9116L101.966 96.9291ZM99.8607 99.9018C99.2116 98.8288 98.3695 97.9845 97.5977 97.2281C96.7557 98.4417 96.3696 100.939 98.3871 100.939C99.0362 100.94 99.5274 100.605 99.8607 99.9018Z" fill="#B89432"/>
<path d="M110.597 98.864H112.386C112.386 99.2158 112.386 99.5676 112.386 99.9194C112.386 101.608 111.211 102.786 109.527 102.786C107.825 102.786 106.439 101.643 106.439 99.8842V93.1297C106.439 91.3532 107.79 90.2274 109.509 90.2274C111.246 90.2274 112.387 91.4763 112.387 93.1825C112.387 93.5695 112.387 93.9389 112.387 94.3258H110.597C110.597 93.376 110.808 92.0919 109.439 92.0919C108.825 92.0919 108.229 92.4612 108.229 93.1296V99.7433C108.229 100.429 108.755 100.939 109.439 100.939C110.773 100.94 110.597 99.8138 110.597 98.864Z" fill="#B89432"/>
<path d="M119.246 93.1825V99.6555C119.246 101.432 118.158 102.804 116.316 102.804C114.65 102.804 113.299 101.59 113.299 99.8842V93.1297C113.299 91.3532 114.65 90.2274 116.369 90.2274C118.106 90.2275 119.246 91.4764 119.246 93.1825ZM117.439 92.9715C117.439 92.4262 116.755 92.092 116.299 92.092C115.685 92.092 115.088 92.4613 115.088 93.1297V99.7434C115.088 100.465 115.667 100.957 116.369 100.957C117.088 100.957 117.439 100.359 117.439 99.7082L117.439 92.9715Z" fill="#B89432"/>
<path d="M127.701 90.4034V102.54H125.912V102.452L122.772 94.8888V102.54H120.982V90.4035H122.772L125.912 97.967V90.4035L127.701 90.4034Z" fill="#B89432"/>
<path d="M135.437 92.0041H133.087V102.611H131.297V92.0041H129.052V90.4738H135.437V92.0041Z" fill="#B89432"/>
<path d="M141.314 97.3161L143.033 102.611L141.191 102.628L139.595 97.7558H138.577V102.611H136.788V90.4738C136.858 90.4738 136.911 90.4738 136.981 90.4738L137.349 90.4562C137.402 90.4562 137.472 90.4562 137.525 90.4562C138.016 90.4387 138.525 90.421 139.016 90.421C141.384 90.421 142.507 91.1422 142.507 93.6223C142.507 94.8359 142.49 96.595 141.314 97.3161ZM140.735 94.3082C140.735 92.2678 140.788 91.8808 138.577 91.8808V96.3311H139.367C140.612 96.3311 140.735 95.3284 140.735 94.3082Z" fill="#B89432"/>
<path d="M148.735 100.042H145.823L145.121 102.611L143.279 102.628C143.559 101.608 143.823 100.605 144.086 99.5852L145.7 93.5167C145.963 92.4966 146.244 91.4764 146.507 90.4738H148.033L151.278 102.628L149.419 102.611L148.735 100.042ZM148.384 98.7234L147.279 94.5722L146.173 98.7234H148.384Z" fill="#B89432"/>
<path d="M156.155 98.864H157.944C157.944 99.2158 157.944 99.5676 157.944 99.9194C157.944 101.608 156.769 102.786 155.085 102.786C153.383 102.786 151.997 101.643 151.997 99.8842V93.1297C151.997 91.3532 153.348 90.2274 155.067 90.2274C156.804 90.2274 157.944 91.4763 157.944 93.1825C157.944 93.5695 157.944 93.9389 157.944 94.3258H156.155C156.155 93.376 156.365 92.0919 154.997 92.0919C154.383 92.0919 153.787 92.4612 153.787 93.1296V99.7433C153.787 100.429 154.313 100.939 154.997 100.939C156.33 100.94 156.155 99.8138 156.155 98.864Z" fill="#B89432"/>
<path d="M164.839 92.0041H162.488V102.611H160.699V92.0041H158.453V90.4738H164.839V92.0041Z" fill="#B89432"/>
<path d="M166.259 102.611V90.4738H168.049V102.611H166.259Z" fill="#B89432"/>
<path d="M177.066 90.4034V102.54H175.277V102.452L172.137 94.8888V102.54H170.347V90.4035H172.137L175.277 97.967V90.4035L177.066 90.4034Z" fill="#B89432"/>
<path d="M184.767 99.9194C184.767 101.608 183.591 102.786 181.907 102.786C180.206 102.786 178.82 101.643 178.82 99.8842V93.1297C178.82 91.3532 180.171 90.2274 181.89 90.2274C183.627 90.2274 184.767 91.4763 184.767 93.1825C184.767 93.6222 184.767 94.0796 184.767 94.5193H182.978C182.978 93.552 183.241 92.092 181.82 92.092C181.206 92.092 180.609 92.4613 180.609 93.1297V99.7434C180.609 100.429 181.136 100.939 181.82 100.939C182.434 100.939 182.978 100.57 182.978 99.9193V97.8613H181.715V96.331H184.767V99.9194H184.767Z" fill="#B89432"/>
<path d="M194.433 101.063V102.611H189.837V90.4561H191.626V101.063H194.433Z" fill="#B89432"/>
<path d="M197.099 101.239V102.857H195.31V101.239H197.099Z" fill="#B89432"/>
<path d="M203.467 101.063V102.611H198.871V90.4561H200.66V101.063H203.467Z" fill="#B89432"/>
<path d="M206.134 101.239V102.857H204.344V101.239H206.134Z" fill="#B89432"/>
<path d="M211.607 98.864H213.396C213.396 99.2158 213.396 99.5676 213.396 99.9194C213.396 101.608 212.221 102.786 210.537 102.786C208.835 102.786 207.449 101.643 207.449 99.8842V93.1297C207.449 91.3532 208.8 90.2274 210.519 90.2274C212.256 90.2274 213.396 91.4763 213.396 93.1825C213.396 93.5695 213.396 93.9389 213.396 94.3258H211.607C211.607 93.376 211.818 92.0919 210.449 92.0919C209.835 92.0919 209.239 92.4612 209.239 93.1296V99.7433C209.239 100.429 209.765 100.939 210.449 100.939C211.782 100.94 211.607 99.8138 211.607 98.864Z" fill="#B89432"/>
<path d="M159.322 13.5396V32.6954L173.234 63.6399L177.371 54.224L159.322 13.5396ZM180.91 62.2022L180.903 62.1868L176.799 71.5705C176.803 71.5804 176.808 71.5912 176.813 71.601C177.169 72.3765 177.732 73.0136 178.418 73.4587C179.115 73.9093 179.937 74.1632 180.801 74.1632C181.729 74.1632 182.613 73.8886 183.359 73.4004C184.104 72.9131 184.712 72.2123 185.086 71.3614L202.496 31.7576V13.5396L180.91 62.2022Z" fill="#B89432"/>
<path d="M159.322 13.5394H151.065V63.6399H159.322V13.5394Z" fill="#B89432"/>
<mask id="mask1_219_624" style="mask-type:luminance" maskUnits="userSpaceOnUse" x="151" y="67" width="9" height="14">
<path d="M159.399 67.3403H151.109V80.2048H159.399V67.3403Z" fill="white"/>
</mask>
<g mask="url(#mask1_219_624)">
<path d="M155.294 67.3403C155.797 68.0865 156.308 68.8077 156.781 69.5535C157.735 71.0602 158.595 72.6159 159.119 74.3361C159.505 75.6044 159.548 76.8446 158.891 78.0504C158.046 79.6014 156.304 80.4428 154.523 80.1457C152.885 79.8725 151.468 78.4596 151.176 76.8195C150.975 75.6871 151.256 74.622 151.651 73.5859C152.499 71.362 153.771 69.3765 155.163 67.4637C155.188 67.4299 155.224 67.4051 155.294 67.3403ZM153.718 75.1349C153.664 74.7753 153.578 74.06 153.443 73.354C153.357 72.909 153.129 72.8558 152.788 73.1715C152.629 73.3185 152.481 73.4865 152.362 73.6673C151.775 74.5612 151.637 75.5617 151.782 76.5924C151.839 76.9995 152.001 77.4219 152.222 77.7688C152.584 78.3353 153.078 78.2598 153.335 77.6446C153.622 76.9577 153.704 76.2329 153.718 75.1349Z" fill="#B89432"/>
</g>
<path d="M158.822 81.3997C159.2 81.5012 159.533 81.6891 159.805 81.9664C160.107 82.2743 160.097 82.6212 159.795 82.9346C159.473 83.2676 159.057 83.4396 158.631 83.5845C157.77 83.8776 156.876 84.0021 155.972 84.0457C154.713 84.1063 153.463 84.0343 152.241 83.7009C151.701 83.5536 151.169 83.3756 150.746 82.9808C150.367 82.6254 150.364 82.224 150.769 81.8953C151.017 81.6941 151.308 81.5468 151.579 81.3753C151.594 81.393 151.609 81.4106 151.623 81.4283C151.596 81.4637 151.57 81.5007 151.541 81.534C151.31 81.7937 151.294 82.1105 151.565 82.3267C151.814 82.5256 152.1 82.7009 152.398 82.8097C153.541 83.2271 154.733 83.2904 155.935 83.2193C156.761 83.1704 157.576 83.0554 158.342 82.7168C158.518 82.6388 158.69 82.5365 158.84 82.4166C159.202 82.1286 159.213 81.7954 158.891 81.468C158.869 81.4449 158.846 81.4214 158.824 81.3982L158.822 81.3997Z" fill="#B89432"/>
<path d="M153.206 81.4242C153.127 81.8284 153.377 81.9726 153.655 82.0806C154.286 82.325 154.947 82.389 155.611 82.3211C156.033 82.2781 156.449 82.1617 156.864 82.068C156.949 82.0489 157.031 81.9934 157.102 81.939C157.323 81.7703 157.343 81.6772 157.223 81.4008C157.442 81.4688 157.609 81.5802 157.723 81.7575C157.818 81.9064 157.759 82.0941 157.581 82.2331C157.297 82.4555 156.961 82.5571 156.616 82.6256C155.527 82.8413 154.447 82.8354 153.384 82.482C153.238 82.4335 153.096 82.3593 152.968 82.273C152.641 82.0523 152.642 81.7888 152.963 81.5565C153.028 81.509 153.105 81.4781 153.206 81.4242Z" fill="#B89432"/>
<path d="M158.824 81.398L158.803 81.3863L158.822 81.3994L158.824 81.398Z" fill="#E3B820"/>
<path d="M203.313 17.3817C203.341 17.2069 203.369 17.0321 203.398 16.8574C203.442 16.7494 203.487 16.6414 203.531 16.5334C203.972 14.7476 207.086 13.1007 208.795 13.7377C209.213 13.8934 209.69 13.8895 210.14 13.959C210.427 14.098 210.714 14.237 211.001 14.376L211.02 14.3805C211.148 14.4403 211.277 14.5001 211.406 14.5597C211.472 14.604 211.538 14.6481 211.604 14.6923C212.08 15.3204 212.557 15.9484 213.034 16.5765C213.102 17.2956 213.227 18.0142 213.231 18.7335C213.25 22.6861 213.24 26.639 213.237 30.5916C213.236 30.8583 213.205 31.1247 213.188 31.3913C213.055 31.489 212.921 31.5866 212.788 31.6842C212.764 31.714 212.734 31.7273 212.696 31.7245C212.578 31.7983 212.46 31.8721 212.342 31.9459C211.771 32.1143 211.2 32.2828 210.628 32.4514C210.466 32.5015 210.303 32.5515 210.14 32.6016C208.833 33.0889 207.515 32.8751 206.227 32.5746C205.322 32.3633 204.458 31.9702 203.576 31.6583C203.504 31.5145 203.431 31.3706 203.358 31.2267C203.338 30.152 203.302 29.0773 203.3 28.0026C203.294 24.5789 203.301 21.1552 203.303 17.7315C203.306 17.6148 203.31 17.4982 203.313 17.3817Z" fill="#B89432"/>
<path d="M212.944 16.5765C212.468 15.9484 211.991 15.3203 211.515 14.6923C212.286 15.0954 212.811 15.6865 212.944 16.5765Z" fill="#B89432"/>
<path d="M210.912 14.3759C210.625 14.2369 210.338 14.0978 210.051 13.9589C210.338 14.0979 210.625 14.237 210.912 14.3759Z" fill="#B89432"/>
<path d="M210.051 32.6016C210.213 32.5515 210.376 32.5015 210.539 32.4514C210.376 32.5016 210.213 32.5516 210.051 32.6016Z" fill="#B89432"/>
<path d="M211.317 14.5597C211.188 14.4999 211.059 14.4403 210.931 14.3805C211.059 14.4403 211.188 14.4999 211.317 14.5597Z" fill="#B89432"/>
<path d="M203.442 16.5334C203.397 16.6414 203.353 16.7494 203.308 16.8573C203.353 16.7493 203.397 16.6413 203.442 16.5334Z" fill="#B89432"/>
<path d="M203.224 17.3817C203.22 17.4983 203.217 17.6149 203.214 17.7314C203.217 17.6148 203.22 17.4982 203.224 17.3817Z" fill="#B89432"/>
<path d="M212.253 31.9459C212.371 31.8722 212.489 31.7983 212.607 31.7246C212.489 31.7984 212.371 31.8722 212.253 31.9459Z" fill="#B89432"/>
<path d="M211.064 69.1386C210.963 69.1783 210.862 69.2181 210.761 69.2578C210.439 69.3646 210.118 69.4715 209.796 69.5783C209.666 69.6884 209.536 69.7983 209.405 69.9084C209.392 70.8021 209.375 71.6959 209.375 72.5897C209.374 72.6357 209.512 72.6816 209.585 72.7277C209.933 72.6606 210.28 72.5937 210.628 72.5266C210.704 72.6006 210.781 72.6743 210.857 72.7483C210.786 72.75 210.715 72.7516 210.644 72.7532C210.605 72.7777 210.567 72.8022 210.528 72.8267C210.205 72.9384 209.882 73.0499 209.559 73.1616C209.495 73.2497 209.376 73.3371 209.375 73.426C209.361 74.4803 209.355 75.535 209.379 76.5888C209.382 76.693 209.608 76.8824 209.723 76.8765C210.068 76.8585 210.408 76.7541 210.753 76.7078C210.811 76.7 210.886 76.8138 210.953 76.8713C210.603 76.9882 210.259 77.1338 209.9 77.2138C209.542 77.2941 209.413 77.4643 209.428 77.8364C209.455 78.5251 209.439 79.2158 209.424 79.9054C209.418 80.1896 209.522 80.2905 209.793 80.4279C210.344 80.7072 210.901 81.0471 211.323 81.489C211.84 82.029 211.763 82.8147 211.156 83.1998C210.375 83.6949 209.511 84.0586 208.678 84.4687C208.591 84.5115 208.459 84.5174 208.367 84.4858C207.381 84.1492 206.401 83.7896 205.653 83.0195C205.224 82.5781 205.226 82.1103 205.606 81.5264C205.982 80.9495 206.54 80.6031 207.179 80.4356C207.721 80.2934 207.566 79.9061 207.52 79.5992C207.506 79.5095 207.135 79.414 206.932 79.4234C206.055 79.4643 205.179 79.5674 204.302 79.5914C204.076 79.5976 203.844 79.3988 203.616 79.2942C203.78 79.1021 203.906 78.8269 204.114 78.7325C205.058 78.3045 206.011 77.8848 206.99 77.5512C207.453 77.3937 207.612 77.1845 207.564 76.7257C207.533 76.4284 207.526 76.1208 207.565 75.8252C207.636 75.2878 207.378 75.1996 206.928 75.2677C206.388 75.3492 205.846 75.429 205.302 75.4551C204.866 75.476 204.424 75.4327 203.989 75.3815C203.855 75.3657 203.735 75.2301 203.609 75.1492C203.691 75.0236 203.743 74.8383 203.859 74.7816C204.708 74.3646 205.569 73.9719 206.428 73.5755C206.506 73.5392 206.599 73.5354 206.683 73.5082C207.573 73.2187 207.538 73.218 207.548 72.2539C207.554 71.7018 207.306 71.7163 206.897 71.7698C206.165 71.8655 205.426 71.9537 204.69 71.9595C204.334 71.9623 203.977 71.7712 203.621 71.6679C203.9 71.4033 204.135 71.045 204.465 70.8924C205.309 70.5018 206.19 70.1863 207.068 69.8756C207.412 69.7539 207.618 69.6112 207.564 69.2078C207.531 68.9646 207.558 68.7133 207.558 68.4657C207.558 67.5179 207.563 67.5638 206.636 67.6672C205.802 67.7602 204.955 67.751 204.113 67.754C203.947 67.7545 203.781 67.6053 203.615 67.5251C203.731 67.3654 203.813 67.1268 203.969 67.0585C205.043 66.588 206.133 66.1529 207.217 65.7067C207.541 65.7874 207.678 65.6425 207.677 65.3268C207.676 64.9932 207.69 64.659 207.674 64.3262C207.66 64.0337 207.767 63.9127 208.067 63.926C208.504 63.9456 208.942 63.9369 209.38 63.9402C209.384 64.1456 209.388 64.351 209.393 64.5564C209.387 64.7248 209.379 64.8931 209.386 65.0609C209.386 65.0708 209.516 65.0751 209.586 65.082C209.933 65.015 210.28 64.948 210.628 64.8809C210.704 64.955 210.781 65.0289 210.857 65.1029C210.786 65.1046 210.715 65.1064 210.645 65.1081C210.606 65.1326 210.567 65.1572 210.529 65.1817C210.203 65.2928 209.878 65.404 209.553 65.5153C209.49 65.6761 209.378 65.8354 209.374 65.9979C209.353 66.7188 209.364 67.4407 209.363 68.1621C209.362 69.4186 209.362 69.4187 210.604 69.0771C210.62 69.0729 210.631 69.0547 210.644 69.0431C210.68 69.0412 210.715 69.0391 210.751 69.0372C210.855 69.071 210.959 69.1048 211.064 69.1386Z" fill="#B89432"/>
<path d="M210.953 76.8714C210.886 76.8138 210.811 76.7001 210.753 76.7079C210.408 76.7542 210.068 76.8586 209.723 76.8766C209.608 76.8825 209.382 76.6931 209.379 76.5889C209.355 75.5351 209.361 74.4803 209.375 73.4261C209.376 73.3372 209.495 73.2498 209.559 73.1617C209.551 74.1874 209.559 75.2136 209.529 76.2387C209.514 76.7141 209.738 76.7651 210.12 76.6947C210.931 76.5447 211.744 76.4056 212.558 76.2738C212.728 76.2463 212.906 76.2698 213.096 76.3831C212.382 76.5458 211.667 76.7086 210.953 76.8714Z" fill="#B89432"/>
<path d="M210.644 69.0432C210.631 69.0548 210.619 69.073 210.604 69.0772C209.362 69.4188 209.362 69.4187 209.363 68.1622C209.364 67.4408 209.353 66.7189 209.373 65.998C209.378 65.8355 209.49 65.6762 209.553 65.5154C209.544 66.5562 209.545 67.5972 209.52 68.6376C209.511 69.0388 209.695 69.1229 210.041 69.0729C210.239 69.0442 210.443 69.0519 210.644 69.0432Z" fill="#B89432"/>
<path d="M209.38 63.9403C208.942 63.937 208.504 63.9457 208.067 63.9261C207.767 63.9128 207.66 64.0338 207.674 64.3263C207.69 64.6591 207.676 64.9934 207.677 65.3269C207.678 65.6427 207.541 65.7876 207.217 65.7068C207.65 65.4776 207.5 65.0683 207.505 64.7201C207.52 63.7708 207.512 63.77 208.445 63.7667C208.895 63.765 209.345 63.7663 209.733 63.7663C209.653 63.8056 209.516 63.8729 209.38 63.9403Z" fill="#B89432"/>
<path d="M210.857 65.1031C210.78 65.0291 210.704 64.9552 210.627 64.881C211.427 64.7184 212.228 64.5559 213.028 64.3933C213.041 64.4609 213.055 64.5284 213.069 64.5959C212.332 64.765 211.594 64.934 210.857 65.1031Z" fill="#B89432"/>
<path d="M210.857 72.7483C210.78 72.6744 210.704 72.6006 210.627 72.5266C211.428 72.364 212.228 72.2012 213.028 72.0386C213.041 72.1063 213.055 72.1739 213.069 72.2415C212.332 72.4104 211.594 72.5794 210.857 72.7483Z" fill="#B89432"/>
<path d="M209.585 72.7277C209.512 72.6817 209.374 72.6358 209.375 72.5898C209.375 71.696 209.392 70.8022 209.405 69.9084C209.446 70.2606 209.471 70.6156 209.534 70.9637C209.566 71.1406 209.666 71.305 209.718 71.4326C209.324 71.7647 209.582 72.2733 209.585 72.7277Z" fill="#B89432"/>
<path d="M211.495 68.8535C212.02 68.7582 212.545 68.6629 213.071 68.5675C213.081 68.6363 213.092 68.7051 213.103 68.7739C212.597 68.8569 212.091 68.9399 211.585 69.0229C211.555 68.9664 211.525 68.91 211.495 68.8535Z" fill="#B89432"/>
<path d="M209.585 65.0822C209.516 65.0752 209.386 65.0709 209.386 65.061C209.378 64.8932 209.387 64.7249 209.392 64.5565C209.457 64.7317 209.521 64.907 209.585 65.0822Z" fill="#B89432"/>
<path d="M211.063 69.1386C210.959 69.1048 210.855 69.071 210.75 69.0372C210.938 68.9937 211.125 68.9501 211.312 68.9065C211.302 68.9586 211.291 69.0109 211.281 69.0633C211.209 69.0884 211.136 69.1135 211.063 69.1386Z" fill="#B89432"/>
<path d="M211.282 69.0633C211.292 69.011 211.302 68.9586 211.312 68.9065C211.373 68.889 211.434 68.8711 211.495 68.8535C211.525 68.9099 211.555 68.9664 211.586 69.0229C211.484 69.0364 211.383 69.0498 211.282 69.0633Z" fill="#B89432"/>
<path d="M210.528 65.1818C210.567 65.1573 210.606 65.1327 210.644 65.1082C210.606 65.1327 210.567 65.1572 210.528 65.1818Z" fill="#B89432"/>
<path d="M210.528 72.8267C210.567 72.8022 210.606 72.7777 210.644 72.7532C210.606 72.7777 210.567 72.8022 210.528 72.8267Z" fill="#B89432"/>
<path d="M208.414 64.285C207.269 64.285 206.341 63.3548 206.341 62.2071V31.1682C206.341 30.0206 207.269 29.0903 208.414 29.0903C209.558 29.0903 210.486 30.0207 210.486 31.1682V62.2071C210.486 63.3548 209.558 64.285 208.414 64.285Z" fill="#B89432"/>
<path d="M211.825 15.5165C212.019 15.8531 212.245 16.1704 212.496 16.4662C212.572 16.556 212.736 16.5506 212.813 16.4662C212.9 16.3708 212.894 16.2447 212.813 16.1489C212.754 16.0796 212.697 16.0089 212.641 15.9374C212.621 15.9126 212.664 15.9687 212.646 15.9435C212.639 15.9346 212.632 15.9259 212.626 15.9172C212.612 15.8996 212.599 15.8819 212.586 15.8642C212.558 15.8265 212.531 15.7884 212.504 15.7501C212.4 15.6012 212.302 15.4476 212.212 15.29C212.153 15.1883 212.007 15.1441 211.905 15.2095C211.803 15.2757 211.763 15.4077 211.825 15.5165Z" fill="#B89432"/>
<path d="M213.037 16.8012C213.037 18.2986 211.642 19.5125 209.922 19.5125C208.201 19.5125 206.806 18.2986 206.806 16.8012C206.806 15.3037 208.201 14.0898 209.922 14.0898C211.642 14.0898 213.037 15.3037 213.037 16.8012Z" fill="#B89432"/>
<path d="M212.39 16.1281C212.39 17.6255 210.589 18.8395 208.368 18.8395C206.146 18.8395 204.346 17.6255 204.346 16.1281C204.346 14.6306 206.146 13.4167 208.368 13.4167C210.589 13.4167 212.39 14.6306 212.39 16.1281Z" fill="#B89432"/>
<path d="M209.84 65.3786L213.062 64.6224L213.001 64.3602L209.779 65.1164" fill="#B89432"/>
<path d="M208.665 69.799L213.169 68.742L213.108 68.4798L208.604 69.5367" fill="#B89432"/>
<path d="M208.542 73.3154L213.112 72.243L213.05 71.9808L208.481 73.0531" fill="#B89432"/>
<path d="M208.747 77.4484L213.133 76.4193L213.071 76.1571L208.686 77.1862" fill="#B89432"/>
</g>
<defs>
<clipPath id="clip0_219_624">
<rect width="226" height="119" fill="white"/>
</clipPath>
</defs>
</svg>
